<?xml version="1.0" encoding="utf-8"?>
<!-- Generator: Adobe Illustrator 19.0.0, SVG Export Plug-In . SVG Version: 6.00 Build 0)  -->
<svg xmlns="http://www.w3.org/2000/svg" xmlns:xlink="http://www.w3.org/1999/xlink" version="1.1" id="Layer_1" x="0px" y="0px" viewBox="0 2 98 98" style="enable-background:new 0 2 98 98;" xml:space="preserve" width="512" height="512">
<style type="text/css">
	.st0{fill:url(#SVGID_1_);}
	.st1{fill:url(#SVGID_2_);}
</style>
<g>
	<linearGradient id="SVGID_1_" gradientUnits="userSpaceOnUse" x1="49.1193" y1="15.25" x2="49.1193" y2="94.6139">
		<stop offset="0" style="stop-color:#00EFD1"/>
		<stop offset="1" style="stop-color:#00ACEA"/>
	</linearGradient>
	<path class="st0" d="M63.2,40.7L44.1,58.9L35,49.5c-1.2-1.2-3.1-1.2-4.2-0.1c-1.2,1.2-1.2,3.1-0.1,4.2l11.2,11.5   c0.6,0.6,1.4,0.9,2.1,0.9s1.5-0.3,2.1-0.8L67.4,45c1.2-1.1,1.3-3,0.1-4.2S64.4,39.6,63.2,40.7z"/>
	<linearGradient id="SVGID_2_" gradientUnits="userSpaceOnUse" x1="49" y1="15.25" x2="49" y2="94.6139">
		<stop offset="0" style="stop-color:#00EFD1"/>
		<stop offset="1" style="stop-color:#00ACEA"/>
	</linearGradient>
	<path class="st1" d="M49,16c-20.4,0-37,16.6-37,37s16.6,37,37,37s37-16.6,37-37S69.4,16,49,16z M49,84c-17.1,0-31-13.9-31-31   s13.9-31,31-31s31,13.9,31,31S66.1,84,49,84z"/>
</g>
</svg>
